<svg xmlns="http://www.w3.org/2000/svg" height="48" viewBox="0 96 960 960" width="48"><path d="M192.001 930.999q-28.892 0-49.792-20.901-20.9-20.9-20.9-49.792V698.463h58.383v161.843q0 4.616 3.847 8.463 3.846 3.846 8.462 3.846h575.998q4.616 0 8.462-3.846 3.847-3.847 3.847-8.463V289.078q0-4.615-3.847-8.462-3.846-3.846-8.462-3.846H192.001q-4.616 0-8.462 3.846-3.847 3.847-3.847 8.462v163.459h-58.383V289.078q0-28.254 20.9-49.473 20.9-21.219 49.792-21.219h575.998q28.254 0 49.473 21.219 21.219 21.219 21.219 49.473v571.228q0 28.892-21.219 49.792-21.219 20.901-49.473 20.901H192.001Zm221.922-164.616-43.23-44.845 116.846-116.846h-366.23v-58.384h366.23L370.693 429.462l43.23-43.845L603.306 575 413.923 766.383Z"/></svg>